<svg width="32" height="31" viewBox="0 0 32 31" fill="none" xmlns="http://www.w3.org/2000/svg">
<path fill-rule="evenodd" clip-rule="evenodd" d="M29.389 0.598597C29.6456 0.455765 29.9593 0.469019 30.1949 0.632492C30.435 0.795966 30.5551 1.0817 30.504 1.36433L26.0016 26.4008C25.9625 26.6217 25.8215 26.8132 25.6189 26.9207C25.4193 27.0282 25.1791 27.0385 24.966 26.9502L15.3098 22.8898L13.9905 29.364C13.9245 29.6909 13.6424 29.9339 13.3017 29.9545C13.2915 29.9524 13.2797 29.9526 13.268 29.9529C13.2642 29.953 13.2604 29.9531 13.2566 29.9531C12.9355 29.9531 12.6473 29.7513 12.5438 29.4494L9.66074 20.9621L1.01303 18.133C0.732403 18.0416 0.534296 17.7972 0.504256 17.51C0.472739 17.2214 0.618294 16.943 0.873456 16.7987L29.389 0.598597ZM15.0531 21.1757L24.6884 25.2272L28.7465 2.66349L3.06765 17.2524L10.4922 19.6809C10.7158 19.7531 10.893 19.9268 10.9665 20.1463L13.0736 26.3524L14.0206 21.7074C14.0642 21.4909 14.2067 21.3039 14.4078 21.2008C14.6074 21.0962 14.8446 21.0874 15.0531 21.1757Z" fill="white"/>
<path d="M30.1949 0.632492L29.9099 1.04331L29.9135 1.04579L30.1949 0.632492ZM29.389 0.598597L29.1458 0.161685L29.142 0.163856L29.389 0.598597ZM30.504 1.36433L30.012 1.27541L30.0119 1.27583L30.504 1.36433ZM26.0016 26.4008L25.5095 26.3123L25.5092 26.3138L26.0016 26.4008ZM25.6189 26.9207L25.3845 26.479L25.3817 26.4805L25.6189 26.9207ZM24.966 26.9502L24.7722 27.4111L24.7745 27.412L24.966 26.9502ZM15.3098 22.8898L15.5036 22.4289L14.9416 22.1926L14.8198 22.79L15.3098 22.8898ZM13.9905 29.364L13.5006 29.2641L13.5004 29.2649L13.9905 29.364ZM13.3017 29.9545L13.1967 30.4434L13.2636 30.4578L13.3319 30.4536L13.3017 29.9545ZM13.268 29.9529L13.2564 29.453H13.2563L13.268 29.9529ZM12.5438 29.4494L12.0703 29.6102L12.0708 29.6117L12.5438 29.4494ZM9.66074 20.9621L10.1342 20.8012L10.0538 20.5646L9.81621 20.4868L9.66074 20.9621ZM1.01303 18.133L1.1685 17.6577L1.16777 17.6575L1.01303 18.133ZM0.504256 17.51L1.00155 17.458L1.0013 17.4557L0.504256 17.51ZM0.873456 16.7987L1.11965 17.2339L1.12044 17.2334L0.873456 16.7987ZM24.6884 25.2272L24.4946 25.6881L25.07 25.9301L25.1805 25.3157L24.6884 25.2272ZM15.0531 21.1757L14.8581 21.6361L14.8593 21.6366L15.0531 21.1757ZM28.7465 2.66349L29.2386 2.752L29.4276 1.70152L28.4996 2.22875L28.7465 2.66349ZM3.06765 17.2524L2.82066 16.8176L1.83764 17.3761L2.9122 17.7276L3.06765 17.2524ZM10.4922 19.6809L10.3368 20.1562L10.3387 20.1568L10.4922 19.6809ZM10.9665 20.1463L10.4924 20.3051L10.493 20.307L10.9665 20.1463ZM13.0736 26.3524L12.6002 26.5132L13.1943 28.2632L13.5635 26.4523L13.0736 26.3524ZM14.0206 21.7074L14.5105 21.8073L14.5108 21.806L14.0206 21.7074ZM14.4078 21.2008L14.6359 21.6458L14.6399 21.6437L14.4078 21.2008ZM30.1949 0.632492L30.4799 0.221692C30.083 -0.0537308 29.5641 -0.0710728 29.1458 0.161702L29.389 0.598597L29.6321 1.03549C29.7271 0.982602 29.8356 0.991769 29.9099 1.04329L30.1949 0.632492ZM30.504 1.36433L30.9961 1.45324C31.0825 0.974721 30.8783 0.492883 30.4763 0.21919L30.1949 0.632492L29.9135 1.04579C29.9917 1.09905 30.0277 1.18868 30.012 1.27541L30.504 1.36433ZM26.0016 26.4008L26.4937 26.4893L30.9961 1.45282L30.504 1.36433L30.0119 1.27583L25.5095 26.3123L26.0016 26.4008ZM25.6189 26.9207L25.8532 27.3624C26.1881 27.1847 26.4274 26.8645 26.4939 26.4878L26.0016 26.4008L25.5092 26.3138C25.4977 26.3789 25.4548 26.4417 25.3846 26.479L25.6189 26.9207ZM24.966 26.9502L24.7745 27.412C25.1223 27.5563 25.5202 27.5419 25.8561 27.3608L25.6189 26.9207L25.3817 26.4805C25.3184 26.5146 25.2359 26.5208 25.1575 26.4883L24.966 26.9502ZM15.3098 22.8898L15.116 23.3508L24.7722 27.4111L24.966 26.9502L25.1598 26.4893L15.5036 22.4289L15.3098 22.8898ZM13.9905 29.364L14.4805 29.4638L15.7997 22.9897L15.3098 22.8898L14.8198 22.79L13.5006 29.2641L13.9905 29.364ZM13.3017 29.9545L13.3319 30.4536C13.8933 30.4196 14.3686 30.0175 14.4806 29.463L13.9905 29.364L13.5004 29.2649C13.4804 29.3643 13.3914 29.4482 13.2714 29.4555L13.3017 29.9545ZM13.268 29.9529L13.2797 30.4528C13.288 30.4526 13.2804 30.4529 13.2706 30.4526C13.2603 30.4523 13.2327 30.4511 13.1967 30.4434L13.3017 29.9545L13.4066 29.4657C13.3605 29.4558 13.3218 29.4537 13.3002 29.453C13.279 29.4524 13.2597 29.453 13.2564 29.453L13.268 29.9529ZM13.2566 29.9531V30.4531C13.2672 30.4531 13.277 30.4528 13.2797 30.4528L13.268 29.9529L13.2563 29.453L13.2566 29.4531V29.9531ZM12.5438 29.4494L12.0708 29.6117C12.2454 30.1204 12.727 30.4531 13.2566 30.4531V29.9531V29.4531C13.144 29.4531 13.0493 29.3822 13.0167 29.2872L12.5438 29.4494ZM9.66074 20.9621L9.18731 21.1229L12.0704 29.6102L12.5438 29.4494L13.0172 29.2886L10.1342 20.8012L9.66074 20.9621ZM1.01303 18.133L0.857565 18.6082L9.50528 21.4373L9.66074 20.9621L9.81621 20.4868L1.1685 17.6577L1.01303 18.133ZM0.504256 17.51L0.00696918 17.562C0.0578494 18.0484 0.392604 18.4569 0.858294 18.6084L1.01303 18.133L1.16777 17.6575C1.0722 17.6264 1.01074 17.5459 1.00154 17.458L0.504256 17.51ZM0.873456 16.7987L0.627262 16.3635C0.202399 16.6038 -0.0465139 17.0723 0.00721058 17.5643L0.504256 17.51L1.0013 17.4557C0.991992 17.3705 1.03419 17.2822 1.11965 17.2339L0.873456 16.7987ZM29.389 0.598597L29.142 0.163856L0.626474 16.3639L0.873456 16.7987L1.12044 17.2334L29.6359 1.03334L29.389 0.598597ZM24.6884 25.2272L24.8822 24.7663L15.247 20.7148L15.0531 21.1757L14.8593 21.6366L24.4946 25.6881L24.6884 25.2272ZM28.7465 2.66349L28.2544 2.57499L24.1963 25.1387L24.6884 25.2272L25.1805 25.3157L29.2386 2.752L28.7465 2.66349ZM3.06765 17.2524L3.31463 17.6871L28.9935 3.09823L28.7465 2.66349L28.4996 2.22875L2.82066 16.8176L3.06765 17.2524ZM10.4922 19.6809L10.6477 19.2057L3.22309 16.7772L3.06765 17.2524L2.9122 17.7276L10.3368 20.1562L10.4922 19.6809ZM10.9665 20.1463L11.4406 19.9875C11.3157 19.6146 11.0177 19.3251 10.6458 19.2051L10.4922 19.6809L10.3387 20.1568C10.4139 20.1811 10.4702 20.239 10.4924 20.3051L10.9665 20.1463ZM13.0736 26.3524L13.5471 26.1917L11.4399 19.9855L10.9665 20.1463L10.493 20.307L12.6002 26.5132L13.0736 26.3524ZM14.0206 21.7074L13.5307 21.6076L12.5837 26.2525L13.0736 26.3524L13.5635 26.4523L14.5105 21.8073L14.0206 21.7074ZM14.4078 21.2008L14.1798 20.7558C13.8459 20.9269 13.6046 21.2399 13.5304 21.6088L14.0206 21.7074L14.5108 21.806C14.5237 21.742 14.5675 21.6808 14.6358 21.6458L14.4078 21.2008ZM15.0531 21.1757L15.2482 20.7153C14.9035 20.5693 14.5096 20.583 14.1757 20.7579L14.4078 21.2008L14.6399 21.6437C14.7052 21.6094 14.7856 21.6054 14.8581 21.6361L15.0531 21.1757Z" fill="white"/>
<path d="M30.2544 0.67766C29.9596 0.425722 29.5256 0.443613 29.2515 0.719382L9.99423 20.1011C9.70537 20.3918 9.70537 20.8644 9.99423 21.1551C10.2831 21.4459 10.7527 21.4459 11.0416 21.1551L23.9721 8.14264L14.3597 21.6858C14.1227 22.0198 14.1983 22.4865 14.5316 22.725C14.6634 22.8189 14.813 22.8636 14.9626 22.8636C15.1922 22.8636 15.4218 22.7548 15.5655 22.552L30.3788 1.67954C30.601 1.36352 30.5477 0.92813 30.2544 0.67766Z" fill="white" stroke="white"/>
<path d="M18.2087 23.0166C17.8785 22.7646 17.4087 22.8302 17.1581 23.1693L12.6555 29.2784C12.4079 29.6159 12.4754 30.0939 12.8071 30.3474C12.9422 30.4497 13.1013 30.5001 13.2574 30.5001C13.484 30.5001 13.7107 30.3947 13.8577 30.1947L18.3603 24.0856C18.6079 23.7482 18.5404 23.2701 18.2087 23.0166Z" fill="white" stroke="white"/>
</svg>
