<svg width="28" height="28" viewBox="0 0 28 28" fill="none" xmlns="http://www.w3.org/2000/svg">
<path d="M1 12.5556C1 7.10856 1 4.38433 2.69289 2.69289C4.38578 1.00144 7.10856 1 12.5556 1H15.4444C20.8914 1 23.6157 1 25.3071 2.69289C26.9986 4.38578 27 7.10856 27 12.5556V15.4444C27 20.8914 27 23.6157 25.3071 25.3071C23.6142 26.9986 20.8914 27 15.4444 27H12.5556C7.10856 27 4.38433 27 2.69289 25.3071C1.00144 23.6142 1 20.8914 1 15.4444V12.5556Z" stroke="white" stroke-width="2"/>
<path d="M20.5002 5.83325C21.4206 5.83343 22.1663 6.57988 22.1663 7.50024C22.1661 8.42046 21.4205 9.16608 20.5002 9.16626C19.5799 9.16626 18.8334 8.42057 18.8333 7.50024C18.8333 6.57977 19.5798 5.83325 20.5002 5.83325Z" fill="black" stroke="white"/>
<path d="M14.0001 18.3334C16.3933 18.3334 18.3334 16.3933 18.3334 14.0001C18.3334 11.6068 16.3933 9.66675 14.0001 9.66675C11.6068 9.66675 9.66675 11.6068 9.66675 14.0001C9.66675 16.3933 11.6068 18.3334 14.0001 18.3334Z" stroke="white" stroke-width="2"/>
</svg>
