<svg width="30" height="29" viewBox="0 0 30 29" fill="none" xmlns="http://www.w3.org/2000/svg">
<path fill-rule="evenodd" clip-rule="evenodd" d="M23.4294 17.4679L27.7365 21.1245C29.2354 22.1078 29.4577 24.2221 28.1841 25.4938L26.6008 27.0744C24.1735 29.498 20.7442 29.3531 17.5203 28.1772C14.2632 26.9888 10.7103 24.578 7.51607 21.3889C4.39567 18.2735 2.02496 14.8195 0.84071 11.6635C-0.541874 7.97925 -0.214344 4.97553 1.78762 2.97652L3.46649 1.30031C3.46693 1.30009 3.46737 1.29964 3.4676 1.2992L3.93784 0.829704C5.21715 -0.447365 7.34876 -0.218369 8.32736 1.29743L11.4378 5.61296C11.444 5.62181 11.45 5.63066 11.4557 5.63973C12.1751 6.7679 12.0159 8.21644 11.0686 9.16229L8.72048 11.5073C8.55738 11.6697 8.50929 11.9116 8.59727 12.124C8.61322 12.1623 8.62453 12.2014 8.63162 12.2408C8.69123 12.4249 9.1433 13.7314 10.3974 15.3755C12.0419 17.5316 14.2202 19.1804 16.8719 20.2756C17.0847 20.3632 17.3273 20.3152 17.49 20.1526L19.8383 17.8082C20.7857 16.8625 22.2365 16.7035 23.3665 17.4216C23.3884 17.4356 23.4095 17.4511 23.4294 17.4679ZM27.0298 22.0114L22.7265 18.3579C22.0529 17.9492 21.2001 18.0503 20.6406 18.6092L19.9246 19.3239L27.2643 24.8105L27.3818 24.693C28.1509 23.9252 28.0118 22.642 27.0926 22.0576C27.0706 22.0437 27.0496 22.0282 27.0298 22.0114ZM7.37962 1.91995C7.38538 1.92902 7.39136 1.93809 7.39757 1.94672L10.5067 6.2607C10.929 6.93574 10.8313 7.79752 10.2664 8.36149L9.57261 9.05445L4.60692 1.76374L4.7401 1.63077C5.51239 0.859707 6.79658 1.00551 7.37962 1.91995ZM8.31817 20.588C11.398 23.6629 14.8043 25.9803 17.9094 27.1132C20.2644 27.9723 23.5445 28.5241 25.7985 26.2735L26.4537 25.6195L19.114 20.1329L18.2921 20.9537C17.8037 21.4411 17.0762 21.5858 16.4382 21.3223C12.8076 19.8227 10.5874 17.5396 9.36414 15.8881C8.5329 14.7659 7.70898 13.2431 7.52993 12.5094C7.29215 11.8837 7.44195 11.181 7.9184 10.7062L8.75584 9.86963L3.79015 2.57892L2.58972 3.77766C0.48715 5.87669 1.05556 9.00851 1.90275 11.2662C3.03138 14.2739 5.30968 17.5845 8.31817 20.588Z" fill="white"/>
</svg>
