<svg width="130" height="94" viewBox="0 0 130 94" fill="none" xmlns="http://www.w3.org/2000/svg">
<path d="M47.499 0.5L47.9707 0.511719C50.3194 0.629511 52.5464 1.60509 54.2158 3.25684C55.885 4.90844 56.8694 7.10997 56.9883 9.42969L57 9.89551V64.3154L56.9902 65.0391C56.7947 72.5125 53.7088 79.6396 48.3516 84.9404C42.8214 90.4123 35.322 93.4903 27.499 93.499C26.3042 93.4988 25.1597 93.0297 24.3164 92.1953C23.4731 91.3609 23 90.2305 23 89.0527C23 87.875 23.4731 86.7446 24.3164 85.9102C25.1599 85.0755 26.3048 84.6055 27.5 84.6055H27.501C32.934 84.5993 38.1439 82.4611 41.9873 78.6582C45.7108 74.9739 47.8571 70.0183 47.9932 64.8203L48 64.3164V58.8682H10.001C7.48046 58.8653 5.06486 57.8733 3.28418 56.1113C1.61495 54.4597 0.630522 52.2583 0.511719 49.9385L0.5 49.4727V9.89551C0.502877 7.40631 1.50368 5.0186 3.28418 3.25684C4.95355 1.60509 7.18063 0.629511 9.5293 0.511719L10.001 0.5H47.499ZM119.999 0.5L120.471 0.511719C122.819 0.629511 125.046 1.60509 126.716 3.25684C128.385 4.90844 129.369 7.10997 129.488 9.42969L129.5 9.89551V64.3154L129.49 65.0391C129.295 72.5125 126.209 79.6396 120.852 84.9404C115.321 90.4123 107.822 93.4903 99.999 93.499C98.8042 93.4988 97.6597 93.0297 96.8164 92.1953C95.9731 91.3609 95.5 90.2305 95.5 89.0527C95.5 87.875 95.9731 86.7446 96.8164 85.9102C97.6599 85.0755 98.8048 84.6055 100 84.6055H100.001C105.434 84.5993 110.644 82.4611 114.487 78.6582C118.211 74.9739 120.357 70.0183 120.493 64.8203L120.5 64.3164V58.8682H82.501C79.9805 58.8653 77.5649 57.8733 75.7842 56.1113C74.115 54.4597 73.1305 52.2583 73.0117 49.9385L73 49.4727V9.89551C73.0029 7.40631 74.0037 5.0186 75.7842 3.25684C77.4536 1.60509 79.6806 0.629511 82.0293 0.511719L82.501 0.5H119.999Z" fill="#FBF2D1" stroke="#F3D97D"/>
</svg>
