<svg width="19" height="16" viewBox="0 0 19 16" fill="none" xmlns="http://www.w3.org/2000/svg">
<path d="M18.303 7.6936C18.3029 7.53474 18.2404 7.3822 18.1282 7.26978L11.1282 0.269775L11.1262 0.268799C11.0131 0.159505 10.8617 0.0984859 10.7043 0.0998535C10.5471 0.101236 10.3966 0.164459 10.2854 0.275635C10.1742 0.386823 10.111 0.537348 10.1096 0.69458C10.1083 0.851695 10.1686 1.00334 10.2776 1.11646L16.2581 7.09692L0.800049 7.09692V7.09009H0.700439C0.541351 7.09009 0.388149 7.1534 0.275635 7.26587C0.163111 7.37839 0.0998535 7.53154 0.0998535 7.69067C0.0999291 7.84965 0.16325 8.00206 0.275635 8.1145C0.388157 8.22702 0.541309 8.29028 0.700439 8.29028H16.259L10.2795 14.2698L10.2776 14.2708C10.1685 14.3838 10.1083 14.5355 10.1096 14.6926C10.111 14.8499 10.1743 15.0003 10.2854 15.1116C10.3966 15.2228 10.5471 15.286 10.7043 15.2874C10.8616 15.2887 11.0131 15.2286 11.1262 15.1194L11.1282 15.1184L18.1282 8.11841C18.2406 8.0059 18.303 7.85267 18.303 7.6936Z" fill="#BA4848" stroke="#BA4848" stroke-width="0.2"/>
</svg>
