<svg width="27" height="32" viewBox="0 0 27 32" fill="none" xmlns="http://www.w3.org/2000/svg">
<path d="M24 7.61905H21C21 3.35238 17.7 0 13.5 0C9.3 0 6 3.35238 6 7.61905H3C1.35 7.61905 0 8.99048 0 10.6667V28.9524C0 30.6286 1.35 32 3 32H24C25.65 32 27 30.6286 27 28.9524V10.6667C27 8.99048 25.65 7.61905 24 7.61905ZM13.5 3.04762C16.05 3.04762 18 5.02857 18 7.61905H9C9 5.02857 10.95 3.04762 13.5 3.04762ZM24 28.9524H3V10.6667H24V28.9524ZM13.5 16.7619C10.95 16.7619 9 14.781 9 12.1905H6C6 16.4571 9.3 19.8095 13.5 19.8095C17.7 19.8095 21 16.4571 21 12.1905H18C18 14.781 16.05 16.7619 13.5 16.7619Z" fill="#927541"/>
</svg>
